<?xml version="1.0" encoding="UTF-8"?>
<svg xmlns="http://www.w3.org/2000/svg" xmlns:xlink="http://www.w3.org/1999/xlink" width="779.93pt" height="337.96pt" viewBox="0 0 779.93 337.96" version="1.2">
<defs>
<clipPath id="clip1">
  <path d="M 0.0117188 311 L 390 311 L 390 337.921875 L 0.0117188 337.921875 Z M 0.0117188 311 "/>
</clipPath>
<clipPath id="clip2">
  <path d="M 389 0 L 779.847656 0 L 779.847656 26 L 389 26 Z M 389 0 "/>
</clipPath>
</defs>
<g id="surface1">
<g clip-path="url(#clip1)" clip-rule="nonzero">
<path style=" stroke:none;fill-rule:nonzero;fill:rgb(100%,100%,100%);fill-opacity:1;" d="M 389.929688 337.921875 L 0.0117188 337.921875 L 0.0117188 311.925781 L 389.929688 311.925781 L 389.929688 337.921875 "/>
</g>
<g clip-path="url(#clip2)" clip-rule="nonzero">
<path style=" stroke:none;fill-rule:nonzero;fill:rgb(100%,100%,100%);fill-opacity:1;" d="M 779.847656 25.996094 L 389.929688 25.996094 L 389.929688 0.00390625 L 779.847656 0.00390625 L 779.847656 25.996094 "/>
</g>
<path style=" stroke:none;fill-rule:nonzero;fill:rgb(100%,100%,100%);fill-opacity:1;" d="M 83.222656 218.28125 C 106.382812 218.28125 125.328125 199.171875 125.328125 175.617188 C 125.328125 152.230469 106.382812 132.628906 83.222656 132.628906 C 60.226562 132.628906 41.28125 152.230469 41.28125 175.617188 C 41.28125 199.171875 60.226562 218.28125 83.222656 218.28125 Z M 83.222656 116.15625 C 115.613281 116.15625 141.519531 142.675781 141.519531 175.617188 C 141.519531 208.558594 115.613281 234.75 83.222656 234.75 C 50.832031 234.75 25.085938 208.558594 25.085938 175.617188 C 25.085938 142.675781 50.832031 116.15625 83.222656 116.15625 "/>
<path style=" stroke:none;fill-rule:nonzero;fill:rgb(100%,100%,100%);fill-opacity:1;" d="M 211.445312 194.746094 L 191.527344 149.617188 L 190.714844 149.617188 L 170.960938 194.746094 Z M 138.085938 229.664062 L 187.800781 118.8125 C 188.285156 117.824219 189.742188 117 190.554688 117 L 192.171875 117 C 192.980469 117 194.4375 117.824219 194.925781 118.8125 L 244.316406 229.664062 C 245.289062 231.808594 243.996094 233.949219 241.566406 233.949219 L 231.363281 233.949219 C 229.421875 233.949219 228.285156 232.960938 227.636719 231.480469 L 217.597656 208.914062 L 164.640625 208.914062 C 161.40625 216.492188 158.003906 223.902344 154.765625 231.480469 C 154.28125 232.632812 152.980469 233.949219 151.039062 233.949219 L 140.839844 233.949219 C 138.40625 233.949219 137.113281 231.808594 138.085938 229.664062 "/>
<path style=" stroke:none;fill-rule:nonzero;fill:rgb(100%,100%,100%);fill-opacity:1;" d="M 228.535156 120.957031 C 227.886719 118.648438 229.179688 117.003906 231.449219 117.003906 L 242.300781 117.003906 C 243.597656 117.003906 244.890625 118.15625 245.210938 119.308594 L 264.808594 194.910156 L 265.457031 194.910156 L 291.851562 117.167969 C 292.179688 116.179688 293.3125 115.355469 294.605469 115.355469 L 297.519531 115.355469 C 298.816406 115.355469 299.953125 116.179688 300.273438 117.167969 L 326.996094 194.910156 L 327.640625 194.910156 L 346.910156 119.308594 C 347.238281 118.15625 348.53125 117.003906 349.828125 117.003906 L 360.679688 117.003906 C 362.945312 117.003906 364.242188 118.648438 363.59375 120.957031 L 332.984375 231.644531 C 332.664062 232.960938 331.367188 233.949219 330.074219 233.949219 L 327.480469 233.949219 C 326.347656 233.949219 325.050781 233.125 324.726562 232.136719 L 296.226562 150.273438 L 295.417969 150.273438 L 267.398438 232.136719 C 267.078125 233.125 265.78125 233.949219 264.648438 233.949219 L 262.054688 233.949219 C 260.757812 233.949219 259.464844 232.960938 259.140625 231.644531 L 228.535156 120.957031 "/>
<path style=" stroke:none;fill-rule:nonzero;fill:rgb(100%,100%,100%);fill-opacity:1;" d="M 73.855469 99.347656 C 73.855469 101.492188 72.113281 103.230469 69.964844 103.230469 L 59.605469 103.230469 C 57.457031 103.230469 55.714844 101.492188 55.714844 99.347656 L 55.714844 88.976562 C 55.714844 86.832031 57.457031 85.09375 59.605469 85.09375 L 69.964844 85.09375 C 72.113281 85.09375 73.855469 86.832031 73.855469 88.976562 L 73.855469 99.347656 "/>
<path style=" stroke:none;fill-rule:nonzero;fill:rgb(100%,100%,100%);fill-opacity:1;" d="M 110.894531 99.347656 C 110.894531 101.492188 109.152344 103.230469 107.007812 103.230469 L 96.644531 103.230469 C 94.496094 103.230469 92.753906 101.492188 92.753906 99.347656 L 92.753906 88.976562 C 92.753906 86.832031 94.496094 85.09375 96.644531 85.09375 L 107.007812 85.09375 C 109.152344 85.09375 110.894531 86.832031 110.894531 88.976562 L 110.894531 99.347656 "/>
<path style=" stroke:none;fill-rule:nonzero;fill:rgb(100%,100%,100%);fill-opacity:1;" d="M 510.597656 134.0625 L 507.773438 127.933594 L 507.738281 127.933594 L 504.953125 134.0625 Z M 495.332031 142.011719 L 506.957031 117.011719 C 507.066406 116.789062 507.324219 116.605469 507.585938 116.605469 L 507.960938 116.605469 C 508.21875 116.605469 508.480469 116.789062 508.59375 117.011719 L 520.21875 142.011719 C 520.441406 142.492188 520.144531 142.976562 519.585938 142.976562 L 515.464844 142.976562 C 514.792969 142.976562 514.496094 142.753906 514.164062 142.050781 L 512.828125 139.113281 L 502.722656 139.113281 L 501.382812 142.085938 C 501.199219 142.53125 500.789062 142.976562 500.046875 142.976562 L 495.960938 142.976562 C 495.40625 142.976562 495.109375 142.492188 495.332031 142.011719 "/>
<path style=" stroke:none;fill-rule:nonzero;fill:rgb(100%,100%,100%);fill-opacity:1;" d="M 522.453125 117.679688 C 522.453125 117.3125 522.78125 116.976562 523.15625 116.976562 L 527.726562 116.976562 C 528.132812 116.976562 528.429688 117.3125 528.429688 117.679688 L 528.429688 132.726562 C 528.429688 135.324219 530.363281 137.40625 533 137.40625 C 535.671875 137.40625 537.644531 135.324219 537.644531 132.726562 L 537.644531 117.679688 C 537.644531 117.3125 537.941406 116.976562 538.347656 116.976562 L 542.917969 116.976562 C 543.285156 116.976562 543.621094 117.3125 543.621094 117.679688 L 543.621094 133.019531 C 543.621094 138.667969 538.867188 143.347656 533 143.347656 C 527.167969 143.347656 522.453125 138.667969 522.453125 133.019531 L 522.453125 117.679688 "/>
<path style=" stroke:none;fill-rule:nonzero;fill:rgb(100%,100%,100%);fill-opacity:1;" d="M 548.125 139.449219 L 549.867188 136.367188 C 550.167969 135.882812 550.871094 135.957031 551.132812 136.144531 C 551.28125 136.21875 553.953125 138.1875 556.40625 138.1875 C 557.890625 138.1875 558.96875 137.257812 558.96875 135.957031 C 558.96875 134.398438 557.667969 133.210938 555.144531 132.207031 C 551.945312 130.941406 547.9375 128.453125 547.9375 123.996094 C 547.9375 120.320312 550.796875 116.605469 556.519531 116.605469 C 560.382812 116.605469 563.351562 118.574219 564.464844 119.390625 C 564.914062 119.652344 564.835938 120.320312 564.6875 120.578125 L 562.792969 123.4375 C 562.53125 123.847656 561.867188 124.183594 561.53125 123.921875 C 561.199219 123.738281 558.488281 121.695312 556.21875 121.695312 C 554.882812 121.695312 553.878906 122.582031 553.878906 123.589844 C 553.878906 124.960938 554.992188 126.003906 557.925781 127.191406 C 560.824219 128.34375 565.433594 130.609375 565.433594 135.660156 C 565.433594 139.484375 562.125 143.347656 556.664062 143.347656 C 551.835938 143.347656 549.164062 141.34375 548.308594 140.488281 C 547.9375 140.117188 547.824219 139.96875 548.125 139.449219 "/>
<path style=" stroke:none;fill-rule:nonzero;fill:rgb(100%,100%,100%);fill-opacity:1;" d="M 573.3125 122.4375 L 568 122.4375 C 567.59375 122.4375 567.292969 122.101562 567.292969 121.730469 L 567.292969 117.679688 C 567.292969 117.3125 567.59375 116.976562 568 116.976562 L 584.492188 116.976562 C 584.902344 116.976562 585.195312 117.3125 585.195312 117.679688 L 585.195312 121.730469 C 585.195312 122.101562 584.902344 122.4375 584.492188 122.4375 L 579.179688 122.4375 L 579.179688 142.269531 C 579.179688 142.644531 578.847656 142.976562 578.472656 142.976562 L 574.019531 142.976562 C 573.644531 142.976562 573.3125 142.644531 573.3125 142.269531 L 573.3125 122.4375 "/>
<path style=" stroke:none;fill-rule:nonzero;fill:rgb(100%,100%,100%);fill-opacity:1;" d="M 600.246094 128.082031 C 601.769531 128.082031 603.070312 126.671875 603.070312 125.109375 C 603.070312 123.550781 601.769531 122.285156 600.246094 122.285156 L 594.746094 122.285156 L 594.746094 128.082031 Z M 588.917969 117.679688 C 588.917969 117.3125 589.210938 116.976562 589.621094 116.976562 L 600.726562 116.976562 C 605.1875 116.976562 608.824219 120.578125 608.824219 125 C 608.824219 128.414062 606.558594 131.164062 603.328125 132.464844 L 608.417969 141.902344 C 608.675781 142.382812 608.417969 142.976562 607.785156 142.976562 L 602.847656 142.976562 C 602.550781 142.976562 602.324219 142.792969 602.25 142.644531 L 597.3125 132.800781 L 594.746094 132.800781 L 594.746094 142.269531 C 594.746094 142.644531 594.414062 142.976562 594.042969 142.976562 L 589.621094 142.976562 C 589.210938 142.976562 588.917969 142.644531 588.917969 142.269531 L 588.917969 117.679688 "/>
<path style=" stroke:none;fill-rule:nonzero;fill:rgb(100%,100%,100%);fill-opacity:1;" d="M 613.804688 117.679688 C 613.804688 117.3125 614.140625 116.976562 614.511719 116.976562 L 618.972656 116.976562 C 619.34375 116.976562 619.675781 117.3125 619.675781 117.679688 L 619.675781 142.269531 C 619.675781 142.644531 619.34375 142.976562 618.972656 142.976562 L 614.511719 142.976562 C 614.140625 142.976562 613.804688 142.644531 613.804688 142.269531 L 613.804688 117.679688 "/>
<path style=" stroke:none;fill-rule:nonzero;fill:rgb(100%,100%,100%);fill-opacity:1;" d="M 637.988281 134.0625 L 635.167969 127.933594 L 635.132812 127.933594 L 632.34375 134.0625 Z M 622.722656 142.011719 L 634.347656 117.011719 C 634.460938 116.789062 634.722656 116.605469 634.980469 116.605469 L 635.351562 116.605469 C 635.613281 116.605469 635.875 116.789062 635.984375 117.011719 L 647.609375 142.011719 C 647.832031 142.492188 647.535156 142.976562 646.980469 142.976562 L 642.859375 142.976562 C 642.1875 142.976562 641.890625 142.753906 641.558594 142.050781 L 640.21875 139.113281 L 630.117188 139.113281 L 628.777344 142.085938 C 628.59375 142.53125 628.183594 142.976562 627.441406 142.976562 L 623.355469 142.976562 C 622.796875 142.976562 622.5 142.492188 622.722656 142.011719 "/>
<path style=" stroke:none;fill-rule:nonzero;fill:rgb(100%,100%,100%);fill-opacity:1;" d="M 650.625 117.273438 C 650.625 116.902344 650.957031 116.605469 651.328125 116.605469 L 652.257812 116.605469 L 667.078125 130.867188 L 667.117188 130.867188 L 667.117188 117.679688 C 667.117188 117.3125 667.414062 116.976562 667.820312 116.976562 L 672.277344 116.976562 C 672.652344 116.976562 672.984375 117.3125 672.984375 117.679688 L 672.984375 142.679688 C 672.984375 143.050781 672.652344 143.347656 672.277344 143.347656 L 671.683594 143.347656 C 671.574219 143.347656 671.277344 143.238281 671.203125 143.164062 L 656.527344 128.414062 L 656.492188 128.414062 L 656.492188 142.269531 C 656.492188 142.644531 656.195312 142.976562 655.785156 142.976562 L 651.367188 142.976562 C 650.996094 142.976562 650.660156 142.644531 650.660156 142.269531 L 650.625 117.273438 "/>
<path style=" stroke:none;fill-rule:nonzero;fill:rgb(100%,100%,100%);fill-opacity:1;" d="M 481.832031 179.535156 L 479.011719 173.40625 L 478.972656 173.40625 L 476.1875 179.535156 Z M 466.570312 187.484375 L 478.195312 162.484375 C 478.304688 162.261719 478.566406 162.078125 478.828125 162.078125 L 479.199219 162.078125 C 479.457031 162.078125 479.71875 162.261719 479.828125 162.484375 L 491.453125 187.484375 C 491.679688 187.964844 491.382812 188.449219 490.824219 188.449219 L 486.703125 188.449219 C 486.03125 188.449219 485.734375 188.226562 485.402344 187.523438 L 484.066406 184.585938 L 473.960938 184.585938 L 472.621094 187.558594 C 472.4375 188.003906 472.027344 188.449219 471.285156 188.449219 L 467.199219 188.449219 C 466.640625 188.449219 466.347656 187.964844 466.570312 187.484375 "/>
<path style=" stroke:none;fill-rule:nonzero;fill:rgb(100%,100%,100%);fill-opacity:1;" d="M 505.796875 162.078125 C 509.511719 162.078125 512.261719 163.226562 514.789062 165.53125 C 515.121094 165.828125 515.121094 166.273438 514.824219 166.570312 L 511.925781 169.578125 C 511.664062 169.839844 511.257812 169.839844 510.996094 169.578125 C 509.621094 168.355469 507.804688 167.6875 505.984375 167.6875 C 501.785156 167.6875 498.703125 171.175781 498.703125 175.335938 C 498.703125 179.460938 501.824219 182.878906 506.019531 182.878906 C 507.769531 182.878906 509.660156 182.246094 510.996094 181.09375 C 511.257812 180.871094 511.742188 180.871094 511.960938 181.128906 L 514.859375 184.214844 C 515.121094 184.476562 515.082031 184.957031 514.824219 185.21875 C 512.296875 187.667969 509.105469 188.820312 505.796875 188.820312 C 498.371094 188.820312 492.390625 182.914062 492.390625 175.484375 C 492.390625 168.058594 498.371094 162.078125 505.796875 162.078125 "/>
<path style=" stroke:none;fill-rule:nonzero;fill:rgb(100%,100%,100%);fill-opacity:1;" d="M 531.207031 179.535156 L 528.386719 173.40625 L 528.351562 173.40625 L 525.5625 179.535156 Z M 515.941406 187.484375 L 527.566406 162.484375 C 527.679688 162.261719 527.941406 162.078125 528.199219 162.078125 L 528.570312 162.078125 C 528.832031 162.078125 529.089844 162.261719 529.203125 162.484375 L 540.832031 187.484375 C 541.050781 187.964844 540.753906 188.449219 540.199219 188.449219 L 536.074219 188.449219 C 535.40625 188.449219 535.109375 188.226562 534.773438 187.523438 L 533.4375 184.585938 L 523.335938 184.585938 L 521.996094 187.558594 C 521.8125 188.003906 521.402344 188.449219 520.660156 188.449219 L 516.570312 188.449219 C 516.015625 188.449219 515.71875 187.964844 515.941406 187.484375 "/>
<path style=" stroke:none;fill-rule:nonzero;fill:rgb(100%,100%,100%);fill-opacity:1;" d="M 553.238281 182.953125 C 557.4375 182.953125 560.484375 179.644531 560.484375 175.410156 C 560.484375 171.214844 557.4375 167.90625 553.238281 167.90625 L 549.675781 167.90625 L 549.675781 182.953125 Z M 543.878906 163.152344 C 543.878906 162.78125 544.179688 162.445312 544.546875 162.445312 L 553.613281 162.445312 C 560.78125 162.445312 566.648438 168.28125 566.648438 175.410156 C 566.648438 182.617188 560.78125 188.449219 553.613281 188.449219 L 544.546875 188.449219 C 544.179688 188.449219 543.878906 188.113281 543.878906 187.742188 L 543.878906 163.152344 "/>
<path style=" stroke:none;fill-rule:nonzero;fill:rgb(100%,100%,100%);fill-opacity:1;" d="M 571.1875 163.152344 C 571.1875 162.78125 571.484375 162.445312 571.890625 162.445312 L 587.269531 162.445312 C 587.679688 162.445312 587.980469 162.78125 587.980469 163.152344 L 587.980469 167.203125 C 587.980469 167.574219 587.679688 167.90625 587.269531 167.90625 L 576.984375 167.90625 L 576.984375 172.511719 L 585.449219 172.511719 C 585.820312 172.511719 586.15625 172.847656 586.15625 173.21875 L 586.15625 177.265625 C 586.15625 177.675781 585.820312 177.976562 585.449219 177.976562 L 576.984375 177.976562 L 576.984375 182.988281 L 587.269531 182.988281 C 587.679688 182.988281 587.980469 183.324219 587.980469 183.695312 L 587.980469 187.742188 C 587.980469 188.113281 587.679688 188.449219 587.269531 188.449219 L 571.890625 188.449219 C 571.484375 188.449219 571.1875 188.113281 571.1875 187.742188 L 571.1875 163.152344 "/>
<path style=" stroke:none;fill-rule:nonzero;fill:rgb(100%,100%,100%);fill-opacity:1;" d="M 595.519531 162.671875 C 595.558594 162.335938 595.894531 162.078125 596.1875 162.078125 L 596.78125 162.078125 C 596.96875 162.078125 597.304688 162.226562 597.414062 162.445312 L 606.03125 178.496094 L 606.105469 178.496094 L 614.722656 162.445312 C 614.835938 162.226562 615.171875 162.078125 615.355469 162.078125 L 615.953125 162.078125 C 616.246094 162.078125 616.582031 162.335938 616.617188 162.671875 L 620.816406 187.632812 C 620.886719 188.113281 620.554688 188.449219 620.113281 188.449219 L 615.726562 188.449219 C 615.394531 188.449219 615.058594 188.152344 615.019531 187.855469 L 613.351562 176.378906 L 613.273438 176.378906 L 607.035156 188.414062 C 606.925781 188.632812 606.589844 188.820312 606.40625 188.820312 L 605.738281 188.820312 C 605.511719 188.820312 605.214844 188.632812 605.105469 188.414062 L 598.824219 176.378906 L 598.753906 176.378906 L 597.117188 187.855469 C 597.082031 188.152344 596.78125 188.449219 596.410156 188.449219 L 592.027344 188.449219 C 591.585938 188.449219 591.25 188.113281 591.324219 187.632812 L 595.519531 162.671875 "/>
<path style=" stroke:none;fill-rule:nonzero;fill:rgb(100%,100%,100%);fill-opacity:1;" d="M 629.851562 175.933594 L 621.640625 163.527344 C 621.34375 163.042969 621.640625 162.445312 622.234375 162.445312 L 627.0625 162.445312 C 627.359375 162.445312 627.546875 162.632812 627.65625 162.78125 L 632.820312 170.398438 L 637.984375 162.78125 C 638.097656 162.632812 638.242188 162.445312 638.578125 162.445312 L 643.40625 162.445312 C 644 162.445312 644.296875 163.042969 644 163.527344 L 635.679688 175.894531 L 635.679688 187.742188 C 635.679688 188.113281 635.347656 188.449219 634.976562 188.449219 L 630.554688 188.449219 C 630.144531 188.449219 629.851562 188.113281 629.851562 187.742188 L 629.851562 175.933594 "/>
<path style=" stroke:none;fill-rule:nonzero;fill:rgb(100%,100%,100%);fill-opacity:1;" d="M 668.351562 182.878906 C 672.433594 182.878906 675.777344 179.535156 675.777344 175.484375 C 675.777344 171.402344 672.433594 168.019531 668.351562 168.019531 C 664.300781 168.019531 660.953125 171.402344 660.953125 175.484375 C 660.953125 179.535156 664.300781 182.878906 668.351562 182.878906 Z M 668.351562 162.078125 C 675.777344 162.078125 681.722656 168.058594 681.722656 175.484375 C 681.722656 182.914062 675.777344 188.820312 668.351562 188.820312 C 660.921875 188.820312 655.015625 182.914062 655.015625 175.484375 C 655.015625 168.058594 660.921875 162.078125 668.351562 162.078125 "/>
<path style=" stroke:none;fill-rule:nonzero;fill:rgb(100%,100%,100%);fill-opacity:1;" d="M 686.21875 163.152344 C 686.21875 162.78125 686.515625 162.445312 686.925781 162.445312 L 702.304688 162.445312 C 702.710938 162.445312 703.011719 162.78125 703.011719 163.152344 L 703.011719 167.203125 C 703.011719 167.574219 702.710938 167.90625 702.304688 167.90625 L 692.015625 167.90625 L 692.015625 173.257812 L 700.480469 173.257812 C 700.851562 173.257812 701.191406 173.589844 701.191406 173.960938 L 701.191406 178.011719 C 701.191406 178.382812 700.851562 178.714844 700.480469 178.714844 L 692.015625 178.714844 L 692.015625 187.742188 C 692.015625 188.113281 691.679688 188.449219 691.304688 188.449219 L 686.925781 188.449219 C 686.515625 188.449219 686.21875 188.113281 686.21875 187.742188 L 686.21875 163.152344 "/>
<path style=" stroke:none;fill-rule:nonzero;fill:rgb(100%,100%,100%);fill-opacity:1;" d="M 498.882812 230.40625 L 500.628906 227.324219 C 500.925781 226.839844 501.632812 226.914062 501.890625 227.101562 C 502.039062 227.175781 504.714844 229.144531 507.164062 229.144531 C 508.652344 229.144531 509.730469 228.214844 509.730469 226.914062 C 509.730469 225.355469 508.429688 224.164062 505.902344 223.164062 C 502.707031 221.898438 498.699219 219.410156 498.699219 214.953125 C 498.699219 211.277344 501.554688 207.5625 507.277344 207.5625 C 511.140625 207.5625 514.113281 209.53125 515.226562 210.347656 C 515.671875 210.609375 515.601562 211.277344 515.449219 211.539062 L 513.554688 214.394531 C 513.292969 214.804688 512.625 215.136719 512.289062 214.878906 C 511.957031 214.691406 509.246094 212.652344 506.984375 212.652344 C 505.644531 212.652344 504.640625 213.542969 504.640625 214.542969 C 504.640625 215.917969 505.753906 216.957031 508.6875 218.148438 C 511.585938 219.300781 516.191406 221.5625 516.191406 226.617188 C 516.191406 230.441406 512.886719 234.304688 507.425781 234.304688 C 502.597656 234.304688 499.921875 232.296875 499.070312 231.445312 C 498.699219 231.074219 498.585938 230.925781 498.882812 230.40625 "/>
<path style=" stroke:none;fill-rule:nonzero;fill:rgb(100%,100%,100%);fill-opacity:1;" d="M 532.242188 207.5625 C 535.957031 207.5625 538.707031 208.714844 541.234375 211.015625 C 541.566406 211.3125 541.566406 211.757812 541.265625 212.054688 L 538.371094 215.066406 C 538.113281 215.324219 537.703125 215.324219 537.441406 215.066406 C 536.070312 213.839844 534.246094 213.171875 532.429688 213.171875 C 528.230469 213.171875 525.148438 216.660156 525.148438 220.824219 C 525.148438 224.945312 528.269531 228.363281 532.464844 228.363281 C 534.210938 228.363281 536.105469 227.730469 537.441406 226.582031 C 537.703125 226.359375 538.1875 226.359375 538.410156 226.617188 L 541.304688 229.699219 C 541.566406 229.960938 541.527344 230.441406 541.265625 230.703125 C 538.742188 233.152344 535.546875 234.304688 532.242188 234.304688 C 524.8125 234.304688 518.832031 228.402344 518.832031 220.972656 C 518.832031 213.542969 524.8125 207.5625 532.242188 207.5625 "/>
<path style=" stroke:none;fill-rule:nonzero;fill:rgb(100%,100%,100%);fill-opacity:1;" d="M 545.730469 208.640625 C 545.730469 208.265625 546.066406 207.933594 546.441406 207.933594 L 550.894531 207.933594 C 551.265625 207.933594 551.601562 208.265625 551.601562 208.640625 L 551.601562 233.230469 C 551.601562 233.601562 551.265625 233.933594 550.894531 233.933594 L 546.441406 233.933594 C 546.066406 233.933594 545.730469 233.601562 545.730469 233.230469 L 545.730469 208.640625 "/>
<path style=" stroke:none;fill-rule:nonzero;fill:rgb(100%,100%,100%);fill-opacity:1;" d="M 557.992188 208.640625 C 557.992188 208.265625 558.289062 207.933594 558.695312 207.933594 L 574.074219 207.933594 C 574.484375 207.933594 574.78125 208.265625 574.78125 208.640625 L 574.78125 212.6875 C 574.78125 213.0625 574.484375 213.394531 574.074219 213.394531 L 563.789062 213.394531 L 563.789062 218 L 572.253906 218 C 572.625 218 572.960938 218.335938 572.960938 218.707031 L 572.960938 222.753906 C 572.960938 223.164062 572.625 223.460938 572.253906 223.460938 L 563.789062 223.460938 L 563.789062 228.472656 L 574.074219 228.472656 C 574.484375 228.472656 574.78125 228.808594 574.78125 229.179688 L 574.78125 233.230469 C 574.78125 233.601562 574.484375 233.933594 574.074219 233.933594 L 558.695312 233.933594 C 558.289062 233.933594 557.992188 233.601562 557.992188 233.230469 L 557.992188 208.640625 "/>
<path style=" stroke:none;fill-rule:nonzero;fill:rgb(100%,100%,100%);fill-opacity:1;" d="M 579.726562 208.230469 C 579.726562 207.859375 580.058594 207.5625 580.433594 207.5625 L 581.359375 207.5625 L 596.179688 221.824219 L 596.21875 221.824219 L 596.21875 208.640625 C 596.21875 208.265625 596.515625 207.933594 596.921875 207.933594 L 601.382812 207.933594 C 601.75 207.933594 602.089844 208.265625 602.089844 208.640625 L 602.089844 233.636719 C 602.089844 234.011719 601.75 234.304688 601.382812 234.304688 L 600.789062 234.304688 C 600.675781 234.304688 600.378906 234.195312 600.304688 234.121094 L 585.628906 219.375 L 585.597656 219.375 L 585.597656 233.230469 C 585.597656 233.601562 585.296875 233.933594 584.890625 233.933594 L 580.46875 233.933594 C 580.097656 233.933594 579.761719 233.601562 579.761719 233.230469 L 579.726562 208.230469 "/>
<path style=" stroke:none;fill-rule:nonzero;fill:rgb(100%,100%,100%);fill-opacity:1;" d="M 619.996094 207.5625 C 623.710938 207.5625 626.460938 208.714844 628.984375 211.015625 C 629.320312 211.3125 629.320312 211.757812 629.019531 212.054688 L 626.125 215.066406 C 625.863281 215.324219 625.453125 215.324219 625.195312 215.066406 C 623.824219 213.839844 622 213.171875 620.179688 213.171875 C 615.984375 213.171875 612.898438 216.660156 612.898438 220.824219 C 612.898438 224.945312 616.019531 228.363281 620.21875 228.363281 C 621.964844 228.363281 623.855469 227.730469 625.195312 226.582031 C 625.453125 226.359375 625.941406 226.359375 626.160156 226.617188 L 629.058594 229.699219 C 629.320312 229.960938 629.28125 230.441406 629.019531 230.703125 C 626.496094 233.152344 623.300781 234.304688 619.996094 234.304688 C 612.566406 234.304688 606.585938 228.402344 606.585938 220.972656 C 606.585938 213.542969 612.566406 207.5625 619.996094 207.5625 "/>
<path style=" stroke:none;fill-rule:nonzero;fill:rgb(100%,100%,100%);fill-opacity:1;" d="M 633.484375 208.640625 C 633.484375 208.265625 633.78125 207.933594 634.1875 207.933594 L 649.566406 207.933594 C 649.976562 207.933594 650.273438 208.265625 650.273438 208.640625 L 650.273438 212.6875 C 650.273438 213.0625 649.976562 213.394531 649.566406 213.394531 L 639.277344 213.394531 L 639.277344 218 L 647.746094 218 C 648.117188 218 648.453125 218.335938 648.453125 218.707031 L 648.453125 222.753906 C 648.453125 223.164062 648.117188 223.460938 647.746094 223.460938 L 639.277344 223.460938 L 639.277344 228.472656 L 649.566406 228.472656 C 649.976562 228.472656 650.273438 228.808594 650.273438 229.179688 L 650.273438 233.230469 C 650.273438 233.601562 649.976562 233.933594 649.566406 233.933594 L 634.1875 233.933594 C 633.78125 233.933594 633.484375 233.601562 633.484375 233.230469 L 633.484375 208.640625 "/>
<path style=" stroke:none;fill-rule:nonzero;fill:rgb(100%,100%,100%);fill-opacity:1;" d="M 653.769531 230.40625 L 655.515625 227.324219 C 655.816406 226.839844 656.515625 226.914062 656.78125 227.101562 C 656.925781 227.175781 659.601562 229.144531 662.054688 229.144531 C 663.539062 229.144531 664.617188 228.214844 664.617188 226.914062 C 664.617188 225.355469 663.316406 224.164062 660.789062 223.164062 C 657.597656 221.898438 653.582031 219.410156 653.582031 214.953125 C 653.582031 211.277344 656.445312 207.5625 662.164062 207.5625 C 666.027344 207.5625 668.996094 209.53125 670.113281 210.347656 C 670.5625 210.609375 670.484375 211.277344 670.335938 211.539062 L 668.441406 214.394531 C 668.183594 214.804688 667.511719 215.136719 667.179688 214.878906 C 666.847656 214.691406 664.132812 212.652344 661.867188 212.652344 C 660.527344 212.652344 659.527344 213.542969 659.527344 214.542969 C 659.527344 215.917969 660.640625 216.957031 663.574219 218.148438 C 666.472656 219.300781 671.078125 221.5625 671.078125 226.617188 C 671.078125 230.441406 667.773438 234.304688 662.3125 234.304688 C 657.480469 234.304688 654.8125 232.296875 653.953125 231.445312 C 653.582031 231.074219 653.472656 230.925781 653.769531 230.40625 "/>
</g>
</svg>
