<svg width="32" height="32" viewBox="0 0 32 32" fill="none" xmlns="http://www.w3.org/2000/svg">
<g id="person">
<path id="Vector" d="M16.0002 8.00004C17.4668 8.00004 18.6668 9.20004 18.6668 10.6667C18.6668 12.1334 17.4668 13.3334 16.0002 13.3334C14.5335 13.3334 13.3335 12.1334 13.3335 10.6667C13.3335 9.20004 14.5335 8.00004 16.0002 8.00004ZM16.0002 21.3334C19.6002 21.3334 23.7335 23.0534 24.0002 24H8.00016C8.30683 23.04 12.4135 21.3334 16.0002 21.3334ZM16.0002 5.33337C13.0535 5.33337 10.6668 7.72004 10.6668 10.6667C10.6668 13.6134 13.0535 16 16.0002 16C18.9468 16 21.3335 13.6134 21.3335 10.6667C21.3335 7.72004 18.9468 5.33337 16.0002 5.33337ZM16.0002 18.6667C12.4402 18.6667 5.3335 20.4534 5.3335 24V26.6667H26.6668V24C26.6668 20.4534 19.5602 18.6667 16.0002 18.6667Z" fill="#2E3E65"/>
</g>
</svg>
