<svg width="32" height="32" viewBox="0 0 32 32" fill="none" xmlns="http://www.w3.org/2000/svg">
<g id="place">
<path id="Vector" d="M16.0002 16C14.5335 16 13.3335 14.8 13.3335 13.3333C13.3335 11.8666 14.5335 10.6666 16.0002 10.6666C17.4668 10.6666 18.6668 11.8666 18.6668 13.3333C18.6668 14.8 17.4668 16 16.0002 16ZM24.0002 13.6C24.0002 8.75996 20.4668 5.33329 16.0002 5.33329C11.5335 5.33329 8.00016 8.75996 8.00016 13.6C8.00016 16.72 10.6002 20.8533 16.0002 25.7866C21.4002 20.8533 24.0002 16.72 24.0002 13.6ZM16.0002 2.66663C21.6002 2.66663 26.6668 6.95996 26.6668 13.6C26.6668 18.0266 23.1068 23.2666 16.0002 29.3333C8.8935 23.2666 5.3335 18.0266 5.3335 13.6C5.3335 6.95996 10.4002 2.66663 16.0002 2.66663Z" fill="#2E3E65"/>
</g>
</svg>
