<svg id="Ebene_1" data-name="Ebene 1" xmlns="http://www.w3.org/2000/svg" viewBox="0 0 378.03 240.03"><defs><style>.cls-1{fill:#2d3a68;}.cls-2{fill:none;stroke:#2d3a68;stroke-miterlimit:10;stroke-width:5px;}.cls-3{fill:#e19b2b;}</style></defs><path class="cls-1" d="M10.25,143.37a1.42,1.42,0,0,1,1.48-1.4H35.42c4.07,0,7.62,1.7,10.73,5.1A17.16,17.16,0,0,1,50.81,159v.52a17.32,17.32,0,0,1-8.73,15.32,1,1,0,0,0-.6,1.25,10.41,10.41,0,0,0,8.74,6.66,1.34,1.34,0,0,1,1.33,1.49v9.17a1.42,1.42,0,0,1-1.41,1.48,22.22,22.22,0,0,1-14.28-4.81,21.15,21.15,0,0,1-7.55-12.65,1,1,0,0,0-1.18-1h-2.3c-.59,0-.89.3-.89,1v15.39a1.36,1.36,0,0,1-1.4,1.41H11.73a1.43,1.43,0,0,1-1.48-1.41Zm13.69,21.76c0,.67.3,1,.89,1h5.92c3.19,0,5.18-2.22,5.18-5.77v-.52c0-3.33-1.92-5.55-4.95-5.55H24.83c-.59,0-.89.3-.89,1Z"/><path class="cls-1" d="M66.2,143.37a1.57,1.57,0,0,1,1.4-1.4h33.9a1.42,1.42,0,0,1,1.48,1.4v9.55a1.46,1.46,0,0,1-1.48,1.33H80.7c-.52,0-.81.3-.81.89v6.74a.74.74,0,0,0,.81.81H96a1.49,1.49,0,0,1,1.48,1.48v8.29a1.42,1.42,0,0,1-1.48,1.4H80.7c-.52,0-.81.3-.81,1V181a.74.74,0,0,0,.81.82h20.8a1.42,1.42,0,0,1,1.48,1.4v9.55a1.43,1.43,0,0,1-1.48,1.41H67.6a1.58,1.58,0,0,1-1.4-1.41Z"/><path class="cls-1" d="M117.77,143.37a1.42,1.42,0,0,1,1.48-1.4h10.81a1.46,1.46,0,0,1,1.41,1.4V181c0,.52.29.82.88.82h17.39c.89,0,1.34.44,1.34,1.4v9.55c0,1-.45,1.41-1.34,1.41H119.25a1.43,1.43,0,0,1-1.48-1.41Z"/><path class="cls-1" d="M164.84,143.37a1.57,1.57,0,0,1,1.4-1.4h33.9a1.42,1.42,0,0,1,1.48,1.4v9.55a1.46,1.46,0,0,1-1.48,1.33h-20.8c-.51,0-.81.3-.81.89v6.74a.74.74,0,0,0,.81.81h15.25a1.49,1.49,0,0,1,1.48,1.48v8.29a1.42,1.42,0,0,1-1.48,1.4H179.34c-.51,0-.81.3-.81,1V181a.74.74,0,0,0,.81.82h20.8a1.42,1.42,0,0,1,1.48,1.4v9.55a1.43,1.43,0,0,1-1.48,1.41h-33.9a1.58,1.58,0,0,1-1.4-1.41Z"/><path class="cls-1" d="M212.42,143.67a1.26,1.26,0,0,1,1.11-1.7H225a1.71,1.71,0,0,1,1.78,1.18L235.66,171a.58.58,0,0,0,.59.37.57.57,0,0,0,.52-.37l8.88-27.83a1.73,1.73,0,0,1,1.7-1.18h11.47a1.26,1.26,0,0,1,1.11,1.7L241.43,193a1.81,1.81,0,0,1-1.78,1.19h-7a1.81,1.81,0,0,1-1.78-1.19Z"/><path class="cls-1" d="M271.77,143.37a1.57,1.57,0,0,1,1.4-1.4h33.9a1.42,1.42,0,0,1,1.48,1.4v9.55a1.46,1.46,0,0,1-1.48,1.33h-20.8c-.52,0-.81.3-.81.89v6.74a.74.74,0,0,0,.81.81h15.25a1.49,1.49,0,0,1,1.48,1.48v8.29a1.42,1.42,0,0,1-1.48,1.4H286.27c-.52,0-.81.3-.81,1V181a.74.74,0,0,0,.81.82h20.8a1.42,1.42,0,0,1,1.48,1.4v9.55a1.43,1.43,0,0,1-1.48,1.41h-33.9a1.58,1.58,0,0,1-1.4-1.41Z"/><path class="cls-1" d="M323.34,143.37a1.42,1.42,0,0,1,1.48-1.4h1.34a1.79,1.79,0,0,1,1.33.52l24.94,23.38c.29.3,1,.22,1-.37V143.37a1.22,1.22,0,0,1,1.41-1.4H365.6a1.42,1.42,0,0,1,1.48,1.4v49.44a1.43,1.43,0,0,1-1.48,1.41h-1.48a1.91,1.91,0,0,1-1.55-.67l-24.5-23.61a.61.61,0,0,0-1,.45v22.42a1.36,1.36,0,0,1-1.4,1.41H324.82a1.43,1.43,0,0,1-1.48-1.41Z"/><line class="cls-2" x1="189.38" y1="7.24" x2="189.38" y2="35.27"/><line class="cls-2" x1="175.37" y1="21.25" x2="203.39" y2="21.25"/><path class="cls-1" d="M242.24,86.28a52.86,52.86,0,0,0-105.72,0h0v36.63h24.1V88.46h0a6.33,6.33,0,1,1,12.65,0h0v34.46h9.78V88.46h0a6.33,6.33,0,0,1,12.66,0h0v34.46h9.78V88.46h0a6.33,6.33,0,1,1,12.65,0h0v34.46h24.1V86.29h0Z"/><path class="cls-3" d="M230.14,122.92h-2.5V87.81h0a38.26,38.26,0,0,0-76.52,0v35.11h-5V87.81a43.26,43.26,0,0,1,86.52,0h0v35.11Z"/><path class="cls-3" d="M148.29,88.85H49.91a15.49,15.49,0,1,0,0,5h98.38Zm-113.65,13a10.49,10.49,0,1,1,10.5-10.49A10.5,10.5,0,0,1,34.64,101.84Z"/><path class="cls-3" d="M152,71.19,103.21,51.63a15.6,15.6,0,1,0-1.88,4.63l48.79,19.57ZM88.09,58.75A10.49,10.49,0,1,1,98.58,48.26,10.51,10.51,0,0,1,88.09,58.75Z"/><path class="cls-3" d="M229.52,93.85H327.9a15.49,15.49,0,1,0,0-5H229.52Zm103.16-2.5a10.5,10.5,0,1,1,10.5,10.49A10.5,10.5,0,0,1,332.68,91.35Z"/><path class="cls-3" d="M227.7,75.83l48.79-19.57a15.39,15.39,0,1,0-1.88-4.63L225.83,71.19Zm51.53-27.57a10.5,10.5,0,1,1,10.5,10.49A10.5,10.5,0,0,1,279.23,48.26Z"/></svg>