<svg id="Ebene_1" data-name="Ebene 1" xmlns="http://www.w3.org/2000/svg" viewBox="0 0 378.03 240.03"><defs><style>.cls-1{fill:#2d3a68;}.cls-2{fill:#e19b2b;}.cls-3{fill:none;stroke:#2d3a68;stroke-miterlimit:10;stroke-width:5px;}</style></defs><path class="cls-1" d="M10.25,143.37a1.42,1.42,0,0,1,1.48-1.4H35.42c4.07,0,7.62,1.7,10.73,5.1A17.16,17.16,0,0,1,50.81,159v.52a17.32,17.32,0,0,1-8.73,15.32,1,1,0,0,0-.6,1.25,10.41,10.41,0,0,0,8.74,6.66,1.34,1.34,0,0,1,1.33,1.49v9.17a1.42,1.42,0,0,1-1.41,1.48,22.22,22.22,0,0,1-14.28-4.81,21.15,21.15,0,0,1-7.55-12.65,1,1,0,0,0-1.18-1h-2.3c-.59,0-.89.3-.89,1v15.39a1.36,1.36,0,0,1-1.4,1.41H11.73a1.43,1.43,0,0,1-1.48-1.41Zm13.69,21.76c0,.67.3,1,.89,1h5.92c3.19,0,5.18-2.22,5.18-5.77v-.52c0-3.33-1.92-5.55-4.95-5.55H24.83c-.59,0-.89.3-.89,1Z"/><path class="cls-1" d="M66.2,143.37a1.57,1.57,0,0,1,1.4-1.4h33.9a1.42,1.42,0,0,1,1.48,1.4v9.55a1.46,1.46,0,0,1-1.48,1.33H80.7c-.52,0-.81.3-.81.89v6.74a.74.74,0,0,0,.81.81H96a1.49,1.49,0,0,1,1.48,1.48v8.29a1.42,1.42,0,0,1-1.48,1.4H80.7c-.52,0-.81.3-.81,1V181a.74.74,0,0,0,.81.82h20.8a1.42,1.42,0,0,1,1.48,1.4v9.55a1.43,1.43,0,0,1-1.48,1.41H67.6a1.58,1.58,0,0,1-1.4-1.41Z"/><path class="cls-1" d="M117.77,143.37a1.42,1.42,0,0,1,1.48-1.4h10.81a1.46,1.46,0,0,1,1.41,1.4V181c0,.52.29.82.88.82h17.39c.89,0,1.34.44,1.34,1.4v9.55c0,1-.45,1.41-1.34,1.41H119.25a1.43,1.43,0,0,1-1.48-1.41Z"/><path class="cls-1" d="M164.84,143.37a1.57,1.57,0,0,1,1.4-1.4h33.9a1.42,1.42,0,0,1,1.48,1.4v9.55a1.46,1.46,0,0,1-1.48,1.33h-20.8c-.51,0-.81.3-.81.89v6.74a.74.74,0,0,0,.81.81h15.25a1.49,1.49,0,0,1,1.48,1.48v8.29a1.42,1.42,0,0,1-1.48,1.4H179.34c-.51,0-.81.3-.81,1V181a.74.74,0,0,0,.81.82h20.8a1.42,1.42,0,0,1,1.48,1.4v9.55a1.43,1.43,0,0,1-1.48,1.41h-33.9a1.58,1.58,0,0,1-1.4-1.41Z"/><path class="cls-1" d="M212.42,143.67a1.26,1.26,0,0,1,1.11-1.7H225a1.71,1.71,0,0,1,1.78,1.18L235.66,171a.58.58,0,0,0,.59.37.57.57,0,0,0,.52-.37l8.88-27.83a1.73,1.73,0,0,1,1.7-1.18h11.47a1.26,1.26,0,0,1,1.11,1.7L241.43,193a1.81,1.81,0,0,1-1.78,1.19h-7a1.81,1.81,0,0,1-1.78-1.19Z"/><path class="cls-1" d="M271.77,143.37a1.57,1.57,0,0,1,1.4-1.4h33.9a1.42,1.42,0,0,1,1.48,1.4v9.55a1.46,1.46,0,0,1-1.48,1.33h-20.8c-.52,0-.81.3-.81.89v6.74a.74.74,0,0,0,.81.81h15.25a1.49,1.49,0,0,1,1.48,1.48v8.29a1.42,1.42,0,0,1-1.48,1.4H286.27c-.52,0-.81.3-.81,1V181a.74.74,0,0,0,.81.82h20.8a1.42,1.42,0,0,1,1.48,1.4v9.55a1.43,1.43,0,0,1-1.48,1.41h-33.9a1.58,1.58,0,0,1-1.4-1.41Z"/><path class="cls-1" d="M323.34,143.37a1.42,1.42,0,0,1,1.48-1.4h1.34a1.79,1.79,0,0,1,1.33.52l24.94,23.38c.29.3,1,.22,1-.37V143.37a1.22,1.22,0,0,1,1.41-1.4H365.6a1.42,1.42,0,0,1,1.48,1.4v49.44a1.43,1.43,0,0,1-1.48,1.41h-1.48a1.91,1.91,0,0,1-1.55-.67l-24.5-23.61a.61.61,0,0,0-1,.45v22.42a1.36,1.36,0,0,1-1.4,1.41H324.82a1.43,1.43,0,0,1-1.48-1.41Z"/><path class="cls-2" d="M10.26,209.47a.3.3,0,0,1,.29-.27h5.68a3.84,3.84,0,0,1,2.84,1.19,4,4,0,0,1,1.15,3v.15A3.77,3.77,0,0,1,19.4,216a4.51,4.51,0,0,1-2,1.42c-.14,0-.19.12-.16.25a3.71,3.71,0,0,0,3.45,3.2.25.25,0,0,1,.25.28v1.52a.25.25,0,0,1-.27.29,5.62,5.62,0,0,1-3.77-1.36,6.36,6.36,0,0,1-1.94-3.71.24.24,0,0,0-.25-.22H12.84c-.13,0-.19.08-.19.22v4.67a.28.28,0,0,1-.27.27H10.55a.25.25,0,0,1-.29-.27Zm2.39,6.12c0,.13.06.21.19.21h2.65a2,2,0,0,0,2.18-2.17v-.14a2,2,0,0,0-2.25-2.17H12.84c-.13,0-.19.07-.19.21Z"/><path class="cls-2" d="M23.68,217.51a4.3,4.3,0,0,1,1.25-3.21,4.36,4.36,0,0,1,3.23-1.25,4.26,4.26,0,0,1,3.17,1.23,4.35,4.35,0,0,1,1.23,3.23v.9c0,.19-.09.29-.28.29h-6.1c-.13,0-.19.06-.17.19a2.34,2.34,0,0,0,2.52,2.16,2.5,2.5,0,0,0,1.67-.62.27.27,0,0,1,.35,0l1.25,1a.25.25,0,0,1,0,.43A4.78,4.78,0,0,1,28.53,223a4.94,4.94,0,0,1-3.46-1.27,4.12,4.12,0,0,1-1.39-3.19Zm2.54-.33H30c.15,0,.21-.08.19-.21a2,2,0,0,0-2-2A2,2,0,0,0,26,217C26,217.1,26.05,217.18,26.22,217.18Z"/><path class="cls-2" d="M40.83,217.1a.3.3,0,0,1,.29.27v1.23a.29.29,0,0,1-.29.27H36.06a.29.29,0,0,1-.27-.27v-1.23a.3.3,0,0,1,.27-.27Z"/><path class="cls-2" d="M44.4,217.51a4.3,4.3,0,0,1,1.25-3.21,4.36,4.36,0,0,1,3.23-1.25,4.26,4.26,0,0,1,3.17,1.23,4.35,4.35,0,0,1,1.23,3.23v.9c0,.19-.09.29-.28.29H46.9c-.13,0-.19.06-.17.19a2.34,2.34,0,0,0,2.52,2.16,2.5,2.5,0,0,0,1.67-.62.27.27,0,0,1,.35,0l1.24,1a.25.25,0,0,1,0,.43A4.78,4.78,0,0,1,49.25,223a4.94,4.94,0,0,1-3.46-1.27,4.12,4.12,0,0,1-1.39-3.19Zm2.54-.33h3.81c.15,0,.21-.08.19-.21a2,2,0,0,0-2-2,2,2,0,0,0-2.17,2C46.71,217.1,46.77,217.18,46.94,217.18Z"/><path class="cls-2" d="M55.72,213.59a.25.25,0,0,1,.23-.33h1.77a.32.32,0,0,1,.35.25l2.38,6.33c.06.13.18.13.23,0l2.39-6.33a.3.3,0,0,1,.34-.25h1.77a.24.24,0,0,1,.23.33l-3.67,9a.33.33,0,0,1-.33.24H59.72a.29.29,0,0,1-.32-.24Z"/><path class="cls-2" d="M67.91,217.55A4.52,4.52,0,0,1,69,214.34a3.58,3.58,0,0,1,2.77-1.23,3.69,3.69,0,0,1,2.62,1.07c.07.08.13.06.19,0l.15-.67a.35.35,0,0,1,.31-.21h1.5a.28.28,0,0,1,.27.27v9a.28.28,0,0,1-.27.27H74.75a.24.24,0,0,1-.26-.27V222c0-.1-.12-.15-.22-.08a3.56,3.56,0,0,1-2.51,1A3.5,3.5,0,0,1,69,221.7a4.71,4.71,0,0,1-1.06-3.19Zm2.31.9a2.72,2.72,0,0,0,.59,1.85,2.18,2.18,0,0,0,1.66.67,2.57,2.57,0,0,0,1.77-.67.64.64,0,0,0,.25-.52v-3.5a.66.66,0,0,0-.25-.54,2.6,2.6,0,0,0-1.77-.65,2.22,2.22,0,0,0-2.25,2.51Z"/><path class="cls-2" d="M80.87,209.47a.24.24,0,0,1,.26-.27h1.81a.25.25,0,0,1,.27.27v13a.25.25,0,0,1-.27.27H81.13a.24.24,0,0,1-.26-.27Z"/><path class="cls-2" d="M87.15,213.53a.25.25,0,0,1,.27-.27h1.81a.25.25,0,0,1,.29.27v5.57c0,1.2.55,1.79,1.65,1.79a2.26,2.26,0,0,0,1.63-.65.67.67,0,0,0,.27-.54v-6.17a.28.28,0,0,1,.27-.27h1.81a.25.25,0,0,1,.29.27v9a.25.25,0,0,1-.29.27H93.63a.26.26,0,0,1-.25-.18l-.17-.73c-.06-.09-.12-.11-.2,0a3.43,3.43,0,0,1-2.61,1.1c-2.06,0-3.25-1.36-3.25-3.77Z"/><path class="cls-2" d="M99.07,217.55a4.52,4.52,0,0,1,1.13-3.21,3.57,3.57,0,0,1,2.77-1.23,3.65,3.65,0,0,1,2.61,1.07c.08.08.14.06.2,0l.15-.67a.34.34,0,0,1,.31-.21h1.5a.28.28,0,0,1,.27.27v9a.28.28,0,0,1-.27.27h-1.83a.25.25,0,0,1-.27-.27V222c0-.1-.11-.15-.21-.08a3.57,3.57,0,0,1-2.52,1,3.52,3.52,0,0,1-2.79-1.23,4.7,4.7,0,0,1-1.05-3.19Zm2.3.9a2.73,2.73,0,0,0,.6,1.85,2.14,2.14,0,0,0,1.65.67,2.53,2.53,0,0,0,1.77-.67.61.61,0,0,0,.25-.52v-3.5a.64.64,0,0,0-.25-.54,2.58,2.58,0,0,0-1.77-.65,2.23,2.23,0,0,0-2.25,2.51Z"/><path class="cls-2" d="M112.47,210.88a.29.29,0,0,1,.28-.29h1.81c.17,0,.27.09.27.29v2.19c0,.13.08.19.21.19h2a.25.25,0,0,1,.27.27v1a.25.25,0,0,1-.27.29h-2c-.13,0-.21.06-.21.19v5.12a.91.91,0,0,0,1,.88,1.83,1.83,0,0,0,1-.29c.19-.08.33,0,.38.12l.68,1.13a.25.25,0,0,1-.12.4,4.84,4.84,0,0,1-2.36.6c-1.91,0-2.92-.88-2.92-2.56V215c0-.13-.06-.19-.2-.19h-1a.25.25,0,0,1-.27-.29v-1a.25.25,0,0,1,.27-.27h1c.14,0,.2-.06.2-.19Z"/><path class="cls-2" d="M121.17,209.84a1.22,1.22,0,1,1,1.73,1.73,1.28,1.28,0,0,1-1.75,0A1.24,1.24,0,0,1,121.17,209.84Zm-.31,3.69a.25.25,0,0,1,.27-.27h1.81a.25.25,0,0,1,.27.27v9a.25.25,0,0,1-.27.27h-1.81a.25.25,0,0,1-.27-.27Z"/><path class="cls-2" d="M127.25,213.53a.24.24,0,0,1,.27-.27h1.53a.23.23,0,0,1,.25.17l.16.75c.06.1.13.1.23,0a3.5,3.5,0,0,1,2.67-1.11c2.08,0,3.29,1.36,3.29,3.73v5.67a.25.25,0,0,1-.29.27h-1.81a.28.28,0,0,1-.27-.27V217c0-1.19-.55-1.79-1.69-1.79a2.43,2.43,0,0,0-1.73.66.58.58,0,0,0-.27.52v6.17a.24.24,0,0,1-.27.27h-1.8a.24.24,0,0,1-.27-.27Z"/><path class="cls-2" d="M139.18,217.55a4.53,4.53,0,0,1,1.14-3.21,3.57,3.57,0,0,1,2.77-1.23,3.67,3.67,0,0,1,2.61,1.07c.08.08.13.06.19,0l.16-.67a.32.32,0,0,1,.3-.21h1.5a.28.28,0,0,1,.27.27v9.55a4,4,0,0,1-1.3,3.12,5.58,5.58,0,0,1-6.21.42c-.16-.06-.2-.19-.1-.38l.65-1.08a.25.25,0,0,1,.39-.1,3.23,3.23,0,0,0,1.69.41,2.26,2.26,0,0,0,2.52-2.44v-1.16a.12.12,0,0,0-.21-.07,3.58,3.58,0,0,1-5.31-.1,4.71,4.71,0,0,1-1.06-3.19Zm2.31.9a2.68,2.68,0,0,0,.6,1.85,2.14,2.14,0,0,0,1.65.67,2.55,2.55,0,0,0,1.77-.67.64.64,0,0,0,.25-.52v-3.5a.66.66,0,0,0-.25-.54,2.6,2.6,0,0,0-1.77-.65,2.23,2.23,0,0,0-2.25,2.51Z"/><path class="cls-2" d="M158.35,210.88a.29.29,0,0,1,.28-.29h1.81c.17,0,.27.09.27.29v2.19c0,.13.08.19.21.19h2a.25.25,0,0,1,.27.27v1a.25.25,0,0,1-.27.29h-2c-.13,0-.21.06-.21.19v5.12a.91.91,0,0,0,1,.88,1.83,1.83,0,0,0,1-.29c.19-.08.33,0,.39.12l.67,1.13a.24.24,0,0,1-.12.4,4.82,4.82,0,0,1-2.36.6c-1.91,0-2.92-.88-2.92-2.56V215c0-.13-.06-.19-.2-.19h-1a.25.25,0,0,1-.27-.29v-1a.25.25,0,0,1,.27-.27h1c.14,0,.2-.06.2-.19Z"/><path class="cls-2" d="M166.75,209.47a.24.24,0,0,1,.26-.27h1.81a.25.25,0,0,1,.27.27V214a.13.13,0,0,0,.23.08,3.36,3.36,0,0,1,2.5-1c2.1,0,3.33,1.36,3.33,3.73v5.67a.25.25,0,0,1-.27.27h-1.81a.25.25,0,0,1-.29-.27V217c0-1.19-.55-1.79-1.69-1.79a2.43,2.43,0,0,0-1.73.66.58.58,0,0,0-.27.52v6.17a.25.25,0,0,1-.27.27H167a.24.24,0,0,1-.26-.27Z"/><path class="cls-2" d="M178.68,217.51a4.3,4.3,0,0,1,1.25-3.21,4.36,4.36,0,0,1,3.23-1.25,4.26,4.26,0,0,1,3.17,1.23,4.35,4.35,0,0,1,1.23,3.23v.9c0,.19-.09.29-.28.29h-6.1c-.13,0-.19.06-.17.19a2.34,2.34,0,0,0,2.52,2.16,2.5,2.5,0,0,0,1.67-.62.27.27,0,0,1,.35,0l1.25,1a.25.25,0,0,1,0,.43,4.78,4.78,0,0,1-3.28,1.17,4.94,4.94,0,0,1-3.46-1.27,4.12,4.12,0,0,1-1.39-3.19Zm2.54-.33H185c.15,0,.21-.08.19-.21a2,2,0,0,0-2-2,2,2,0,0,0-2.17,2C181,217.1,181.05,217.18,181.22,217.18Z"/><path class="cls-2" d="M197.23,209.47a.29.29,0,0,1,.29-.27H206a.3.3,0,0,1,.29.27v1.58a.25.25,0,0,1-.29.27h-6.21c-.14,0-.2.06-.2.19v3.36c0,.12.06.18.2.18h4.44a.3.3,0,0,1,.29.29v1.38a.25.25,0,0,1-.29.27h-4.44c-.14,0-.2.08-.2.21v3.27c0,.13.06.19.18.19H206a.3.3,0,0,1,.29.27v1.58a.25.25,0,0,1-.29.27H197.5a.28.28,0,0,1-.27-.27Z"/><path class="cls-2" d="M210.05,209.47a.25.25,0,0,1,.27-.27h1.81a.25.25,0,0,1,.27.27v13a.25.25,0,0,1-.27.27h-1.81a.25.25,0,0,1-.27-.27Z"/><path class="cls-2" d="M216,217.51a4.3,4.3,0,0,1,1.25-3.21,4.36,4.36,0,0,1,3.23-1.25,4.27,4.27,0,0,1,3.17,1.23,4.35,4.35,0,0,1,1.23,3.23v.9a.25.25,0,0,1-.29.29h-6.09c-.14,0-.19.06-.17.19a2.33,2.33,0,0,0,2.51,2.16,2.51,2.51,0,0,0,1.68-.62.26.26,0,0,1,.34,0l1.25,1a.25.25,0,0,1,0,.43,4.78,4.78,0,0,1-3.29,1.17,5,5,0,0,1-3.46-1.27,4.14,4.14,0,0,1-1.38-3.19Zm2.54-.33h3.8c.16,0,.22-.08.2-.21a2,2,0,0,0-2-2,2,2,0,0,0-2.17,2C218.34,217.1,218.39,217.18,218.57,217.18Z"/><path class="cls-2" d="M227.35,213.59a.25.25,0,0,1,.23-.33h1.77a.32.32,0,0,1,.35.25l2.38,6.33c.06.13.17.13.23,0l2.38-6.33a.32.32,0,0,1,.35-.25h1.77a.25.25,0,0,1,.23.33l-3.67,9a.33.33,0,0,1-.33.24h-1.69a.31.31,0,0,1-.33-.24Z"/><path class="cls-2" d="M239.46,217.51a4.3,4.3,0,0,1,1.25-3.21,4.36,4.36,0,0,1,3.23-1.25,4.27,4.27,0,0,1,3.17,1.23,4.35,4.35,0,0,1,1.23,3.23v.9a.25.25,0,0,1-.29.29H242c-.14,0-.19.06-.17.19a2.33,2.33,0,0,0,2.51,2.16,2.51,2.51,0,0,0,1.68-.62.26.26,0,0,1,.34,0l1.25,1a.25.25,0,0,1,0,.43A4.78,4.78,0,0,1,244.3,223a5,5,0,0,1-3.46-1.27,4.14,4.14,0,0,1-1.38-3.19Zm2.54-.33h3.8c.16,0,.22-.08.2-.21a2,2,0,0,0-2-2,2,2,0,0,0-2.17,2C241.77,217.1,241.82,217.18,242,217.18Z"/><path class="cls-2" d="M251.92,213.53a.24.24,0,0,1,.26-.27h1.54a.23.23,0,0,1,.25.17l.16.75c.05.1.13.1.23,0a3.5,3.5,0,0,1,2.67-1.11c2.08,0,3.29,1.36,3.29,3.73v5.67a.25.25,0,0,1-.29.27h-1.81a.28.28,0,0,1-.27-.27V217c0-1.19-.56-1.79-1.69-1.79a2.43,2.43,0,0,0-1.73.66.58.58,0,0,0-.27.52v6.17a.25.25,0,0,1-.27.27h-1.81a.24.24,0,0,1-.26-.27Z"/><path class="cls-2" d="M264.7,210.88a.29.29,0,0,1,.29-.29h1.8c.18,0,.27.09.27.29v2.19c0,.13.08.19.21.19h2a.24.24,0,0,1,.27.27v1c0,.19-.09.29-.27.29h-2c-.13,0-.21.06-.21.19v5.12a.91.91,0,0,0,1,.88,1.81,1.81,0,0,0,1-.29q.3-.12.39.12l.67,1.13a.24.24,0,0,1-.11.4,4.85,4.85,0,0,1-2.37.6c-1.9,0-2.92-.88-2.92-2.56V215a.17.17,0,0,0-.19-.19h-1c-.18,0-.27-.1-.27-.29v-1a.24.24,0,0,1,.27-.27h1a.17.17,0,0,0,.19-.19Z"/><path class="cls-2" d="M273.1,209.47a.24.24,0,0,1,.27-.27h1.8a.24.24,0,0,1,.27.27V214a.13.13,0,0,0,.23.08,3.36,3.36,0,0,1,2.5-1c2.1,0,3.33,1.36,3.33,3.73v5.67a.25.25,0,0,1-.27.27h-1.81a.25.25,0,0,1-.29-.27V217c0-1.19-.55-1.79-1.69-1.79a2.43,2.43,0,0,0-1.73.66.58.58,0,0,0-.27.52v6.17a.24.24,0,0,1-.27.27h-1.8a.24.24,0,0,1-.27-.27Z"/><path class="cls-2" d="M291,215.45a6.14,6.14,0,0,1,6.4-6.44,6.23,6.23,0,0,1,3.56,1.08c.15.09.17.23.06.4l-1,1.35c-.16.13-.29.15-.41,0a3.67,3.67,0,0,0-2.19-.68c-2.46,0-4,1.69-4,4.25v1.12c0,2.55,1.54,4.23,4,4.23a3.79,3.79,0,0,0,2.17-.68c.16-.13.29-.11.39,0l1.06,1.37a.24.24,0,0,1-.06.4,6.17,6.17,0,0,1-3.56,1,6.07,6.07,0,0,1-6.4-6.4Z"/><path class="cls-2" d="M303.83,217.51a4.3,4.3,0,0,1,1.25-3.21,4.36,4.36,0,0,1,3.23-1.25,4.26,4.26,0,0,1,3.17,1.23,4.35,4.35,0,0,1,1.23,3.23v.9c0,.19-.09.29-.28.29h-6.1c-.13,0-.19.06-.17.19a2.34,2.34,0,0,0,2.52,2.16,2.5,2.5,0,0,0,1.67-.62.27.27,0,0,1,.35,0l1.25,1a.25.25,0,0,1,0,.43,4.78,4.78,0,0,1-3.28,1.17,4.94,4.94,0,0,1-3.46-1.27,4.12,4.12,0,0,1-1.39-3.19Zm2.54-.33h3.81c.15,0,.21-.08.19-.21a2,2,0,0,0-2-2,2,2,0,0,0-2.17,2C306.14,217.1,306.2,217.18,306.37,217.18Z"/><path class="cls-2" d="M316.29,213.53a.24.24,0,0,1,.27-.27h1.53a.23.23,0,0,1,.25.17l.16.75c.06.1.13.1.23,0a3.5,3.5,0,0,1,2.67-1.11c2.08,0,3.29,1.36,3.29,3.73v5.67a.25.25,0,0,1-.29.27h-1.81a.28.28,0,0,1-.27-.27V217c0-1.19-.55-1.79-1.69-1.79a2.43,2.43,0,0,0-1.73.66.58.58,0,0,0-.27.52v6.17a.24.24,0,0,1-.27.27h-1.8a.24.24,0,0,1-.27-.27Z"/><path class="cls-2" d="M329.07,210.88a.29.29,0,0,1,.29-.29h1.81c.17,0,.26.09.26.29v2.19c0,.13.08.19.22.19h2a.24.24,0,0,1,.27.27v1c0,.19-.09.29-.27.29h-2c-.14,0-.22.06-.22.19v5.12a.92.92,0,0,0,1,.88,1.81,1.81,0,0,0,1-.29q.3-.12.39.12l.67,1.13a.24.24,0,0,1-.11.4,4.85,4.85,0,0,1-2.37.6c-1.9,0-2.92-.88-2.92-2.56V215a.17.17,0,0,0-.19-.19h-1c-.18,0-.27-.1-.27-.29v-1a.24.24,0,0,1,.27-.27h1a.17.17,0,0,0,.19-.19Z"/><path class="cls-2" d="M337.26,213.53a.24.24,0,0,1,.27-.27h1.8c.2,0,.29.1.29.27v5.57c0,1.2.56,1.79,1.66,1.79a2.26,2.26,0,0,0,1.63-.65.7.7,0,0,0,.27-.54v-6.17a.28.28,0,0,1,.27-.27h1.81a.25.25,0,0,1,.28.27v9a.25.25,0,0,1-.28.27h-1.52a.25.25,0,0,1-.25-.18l-.18-.73c-.05-.09-.11-.11-.19,0a3.44,3.44,0,0,1-2.61,1.1c-2.06,0-3.25-1.36-3.25-3.77Z"/><path class="cls-2" d="M349.58,213.53a.24.24,0,0,1,.27-.27h1.53a.26.26,0,0,1,.25.17l.16.62a.13.13,0,0,0,.21,0,3,3,0,0,1,2.27-1,3.22,3.22,0,0,1,1.75.51.3.3,0,0,1,.08.39l-.81,1.27c-.08.13-.21.17-.39.07a2,2,0,0,0-1-.25,2.66,2.66,0,0,0-1.75.68.65.65,0,0,0-.25.54v6.17a.24.24,0,0,1-.27.27h-1.8a.24.24,0,0,1-.27-.27Z"/><path class="cls-2" d="M358.57,213.61a.25.25,0,0,1,.22-.35h1.78a.33.33,0,0,1,.33.23l2.48,5.92c.06.14.17.14.23,0l2.48-5.92a.38.38,0,0,1,.35-.23h1.71a.22.22,0,0,1,.21.33l-5.65,13a.34.34,0,0,1-.35.23h-1.59a.26.26,0,0,1-.24-.34l1.79-4.18a.31.31,0,0,0,0-.32Z"/><line class="cls-3" x1="189.38" y1="7.24" x2="189.38" y2="35.27"/><line class="cls-3" x1="175.37" y1="21.25" x2="203.39" y2="21.25"/><path class="cls-1" d="M242.24,86.28a52.86,52.86,0,0,0-105.72,0h0v36.63h24.1V88.46h0a6.33,6.33,0,1,1,12.65,0h0v34.46h9.78V88.46h0a6.33,6.33,0,0,1,12.66,0h0v34.46h9.78V88.46h0a6.33,6.33,0,1,1,12.65,0h0v34.46h24.1V86.29h0Z"/><path class="cls-2" d="M230.14,122.92h-2.5V87.81h0a38.26,38.26,0,0,0-76.52,0v35.11h-5V87.81a43.26,43.26,0,0,1,86.52,0h0v35.11Z"/><path class="cls-2" d="M148.29,88.85H49.91a15.49,15.49,0,1,0,0,5h98.38Zm-113.65,13a10.49,10.49,0,1,1,10.5-10.49A10.5,10.5,0,0,1,34.64,101.84Z"/><path class="cls-2" d="M152,71.19,103.21,51.63a15.6,15.6,0,1,0-1.88,4.63l48.79,19.57ZM88.09,58.75A10.49,10.49,0,1,1,98.58,48.26,10.51,10.51,0,0,1,88.09,58.75Z"/><path class="cls-2" d="M229.52,93.85H327.9a15.49,15.49,0,1,0,0-5H229.52Zm103.16-2.5a10.5,10.5,0,1,1,10.5,10.49A10.5,10.5,0,0,1,332.68,91.35Z"/><path class="cls-2" d="M227.7,75.83l48.79-19.57a15.39,15.39,0,1,0-1.88-4.63L225.83,71.19Zm51.53-27.57a10.5,10.5,0,1,1,10.5,10.49A10.5,10.5,0,0,1,279.23,48.26Z"/></svg>