<svg xmlns="http://www.w3.org/2000/svg" viewBox="0 0 378.03 240.03"><defs><style>.cls-1{fill:none;stroke:#2d3a68;stroke-miterlimit:10;stroke-width:5px;}.cls-2{fill:#2d3a68;}.cls-3{fill:#e19b2b;}</style></defs><g id="Ebene_2" data-name="Ebene 2"><line class="cls-1" x1="189.38" y1="7.24" x2="189.38" y2="35.27"/><line class="cls-1" x1="175.37" y1="21.25" x2="203.39" y2="21.25"/><path class="cls-2" d="M242.24,86.28a52.86,52.86,0,0,0-105.72,0h0v36.63h24.1V88.46h0a6.33,6.33,0,1,1,12.65,0h0v34.46h9.78V88.46h0a6.33,6.33,0,0,1,12.66,0h0v34.46h9.78V88.46h0a6.33,6.33,0,1,1,12.65,0h0v34.46h24.1V86.29h0Z"/><path class="cls-3" d="M230.14,122.92h-2.5V87.81h0a38.26,38.26,0,0,0-76.52,0v35.11h-5V87.81a43.26,43.26,0,0,1,86.52,0h0v35.11Z"/><path class="cls-3" d="M148.29,88.85H99.52a15.49,15.49,0,1,0,0,5h48.77Zm-64,13A10.49,10.49,0,1,1,94.74,91.35,10.49,10.49,0,0,1,84.25,101.84Z"/><path class="cls-3" d="M152.37,71.34l-19-7.62a15,15,0,0,0,.38-3.37,15.55,15.55,0,1,0-2.25,8l19,7.63Zm-34.12-.49a10.5,10.5,0,1,1,10.49-10.5A10.51,10.51,0,0,1,118.25,70.85Z"/><path class="cls-3" d="M230.47,93.85h48.77a15.49,15.49,0,1,0,0-5H230.47ZM284,91.35a10.5,10.5,0,1,1,10.5,10.49A10.5,10.5,0,0,1,284,91.35Z"/><path class="cls-3" d="M228.24,76l19-7.63a15.55,15.55,0,1,0-1.87-4.64l-19,7.62ZM250,60.35a10.5,10.5,0,1,1,10.49,10.5A10.51,10.51,0,0,1,250,60.35Z"/><path class="cls-2" d="M195.71,155.63c0-.67-.3-1-.81-1h-4.1a1.5,1.5,0,0,1-1.26-2.15l7.13-10a1.21,1.21,0,0,1,1.11-.59H208a1.22,1.22,0,0,1,1.4,1.4v49.44a1.58,1.58,0,0,1-1.4,1.41H197.12a1.45,1.45,0,0,1-1.41-1.41Z"/><path class="cls-2" d="M228.25,155.63c0-.67-.29-1-.81-1h-4.1a1.51,1.51,0,0,1-1.26-2.15l7.13-10a1.23,1.23,0,0,1,1.11-.59h10.22a1.22,1.22,0,0,1,1.4,1.4v49.44a1.58,1.58,0,0,1-1.4,1.41H229.66a1.45,1.45,0,0,1-1.41-1.41Z"/><path class="cls-2" d="M136.64,143.37a1.42,1.42,0,0,1,1.48-1.4H161.8c4.07,0,7.63,1.7,10.74,5.1A17.21,17.21,0,0,1,177.2,159v.52a17.31,17.31,0,0,1-8.74,15.32,1,1,0,0,0-.59,1.25,10.41,10.41,0,0,0,8.74,6.66,1.34,1.34,0,0,1,1.33,1.49v9.17a1.42,1.42,0,0,1-1.41,1.48,22.2,22.2,0,0,1-14.28-4.81,21.15,21.15,0,0,1-7.55-12.65,1,1,0,0,0-1.18-1h-2.3c-.59,0-.89.3-.89,1v15.39a1.36,1.36,0,0,1-1.4,1.41H138.12a1.43,1.43,0,0,1-1.48-1.41Zm13.69,21.76c0,.67.3,1,.89,1h5.92c3.18,0,5.18-2.22,5.18-5.77v-.52c0-3.33-1.92-5.55-5-5.55h-6.14c-.59,0-.89.3-.89,1Z"/></g></svg>