<svg width="32" height="32" viewBox="0 0 32 32" fill="none" xmlns="http://www.w3.org/2000/svg">
<g id="menu_book">
<g id="Vector">
<path d="M28.0002 5.33329C26.5202 4.86663 24.8935 4.66663 23.3335 4.66663C20.7335 4.66663 17.9335 5.19996 16.0002 6.66663C14.0668 5.19996 11.2668 4.66663 8.66683 4.66663C6.06683 4.66663 3.26683 5.19996 1.3335 6.66663V26.2C1.3335 26.5333 1.66683 26.8666 2.00016 26.8666C2.1335 26.8666 2.20016 26.8 2.3335 26.8C4.1335 25.9333 6.7335 25.3333 8.66683 25.3333C11.2668 25.3333 14.0668 25.8666 16.0002 27.3333C17.8002 26.2 21.0668 25.3333 23.3335 25.3333C25.5335 25.3333 27.8002 25.7333 29.6668 26.7333C29.8002 26.8 29.8668 26.8 30.0002 26.8C30.3335 26.8 30.6668 26.4666 30.6668 26.1333V6.66663C29.8668 6.06663 29.0002 5.66663 28.0002 5.33329ZM28.0002 23.3333C26.5335 22.8666 24.9335 22.6666 23.3335 22.6666C21.0668 22.6666 17.8002 23.5333 16.0002 24.6666V9.33329C17.8002 8.19996 21.0668 7.33329 23.3335 7.33329C24.9335 7.33329 26.5335 7.53329 28.0002 7.99996V23.3333Z" fill="#2E3E65"/>
<path d="M23.3335 12.6666C24.5068 12.6666 25.6402 12.7866 26.6668 13.0133V10.9866C25.6135 10.7866 24.4802 10.6666 23.3335 10.6666C21.0668 10.6666 19.0135 11.0533 17.3335 11.7733V13.9866C18.8402 13.1333 20.9335 12.6666 23.3335 12.6666Z" fill="#2E3E65"/>
<path d="M17.3335 15.32V17.5333C18.8402 16.68 20.9335 16.2133 23.3335 16.2133C24.5068 16.2133 25.6402 16.3333 26.6668 16.56V14.5333C25.6135 14.3333 24.4802 14.2133 23.3335 14.2133C21.0668 14.2133 19.0135 14.6133 17.3335 15.32Z" fill="#2E3E65"/>
<path d="M23.3335 17.7733C21.0668 17.7733 19.0135 18.16 17.3335 18.88V21.0933C18.8402 20.24 20.9335 19.7733 23.3335 19.7733C24.5068 19.7733 25.6402 19.8933 26.6668 20.12V18.0933C25.6135 17.88 24.4802 17.7733 23.3335 17.7733Z" fill="#2E3E65"/>
</g>
</g>
</svg>
